<?xml version="1.0" standalone="no"?>
<!DOCTYPE svg PUBLIC "-//W3C//DTD SVG 1.1//EN" "http://www.w3.org/Graphics/SVG/1.1/DTD/svg11.dtd" >
<!--
2013-9-30: Created.
-->
<svg>
<metadata>
Created by iconfont
</metadata>
<defs>

<font id="iconfont" horiz-adv-x="1024" >
  <font-face
    font-family="iconfont"
    font-weight="500"
    font-stretch="normal"
    units-per-em="1024"
    ascent="896"
    descent="-128"
  />
    <missing-glyph />
    
    <glyph glyph-name="x" unicode="x" horiz-adv-x="1001"
d="M281 543q-27 -1 -53 -1h-83q-18 0 -36.5 -6t-32.5 -18.5t-23 -32t-9 -45.5v-76h912v41q0 16 -0.5 30t-0.5 18q0 13 -5 29t-17 29.5t-31.5 22.5t-49.5 9h-133v-97h-438v97zM955 310v-52q0 -23 0.5 -52t0.5 -58t-10.5 -47.5t-26 -30t-33 -16t-31.5 -4.5q-14 -1 -29.5 -0.5
t-29.5 0.5h-32l-45 128h-439l-44 -128h-29h-34q-20 0 -45 1q-25 0 -41 9.5t-25.5 23t-13.5 29.5t-4 30v167h911zM163 247q-12 0 -21 -8.5t-9 -21.5t9 -21.5t21 -8.5q13 0 22 8.5t9 21.5t-9 21.5t-22 8.5zM316 123q-8 -26 -14 -48q-5 -19 -10.5 -37t-7.5 -25t-3 -15t1 -14.5
t9.5 -10.5t21.5 -4h37h67h81h80h64h36q23 0 34 12t2 38q-5 13 -9.5 30.5t-9.5 34.5q-5 19 -11 39h-368zM336 498v228q0 11 2.5 23t10 21.5t20.5 15.5t34 6h188q31 0 51.5 -14.5t20.5 -52.5v-227h-327z" />
    

    
    <glyph glyph-name="MideaSelector-fanhui" unicode="&#60620;" d="M462.266 728.534l-328.098-284.381 328.098-284.359v191.379s454.799 147.683 362.705-311.707c0 0 293.586 557.828-368.422 519.544l5.719 169.527z"  horiz-adv-x="1024" />

    
    <glyph glyph-name="MideaSelector-chenggong" unicode="&#59202;" d="M512 896C229.003636 896 0 666.996364 0 384s229.003636-512 512-512 512 229.003636 512 512S794.996364 896 512 896z m260.654545-425.425455l-279.272727-279.272727c-5.585455-5.585455-13.032727-9.309091-21.410909-9.309091-10.24-1.861818-20.48 0.930909-27.927273 8.378182l-175.941818 176.872727a30.906182 30.906182 0 0 0 0 43.752728l14.894546 14.894545c12.101818 12.101818 31.650909 12.101818 43.752727 0l141.498182-141.498182 244.829091 244.829091c12.101818 12.101818 31.650909 12.101818 43.752727 0L772.654545 514.327273c12.101818-12.101818 12.101818-31.650909 0-43.752728z"  horiz-adv-x="1024" />

    
    <glyph glyph-name="MideaSelector-caution" unicode="&#58990;" d="M512 384m-426.666667 0a426.666667 426.666667 0 1 1 853.333334 0 426.666667 426.666667 0 1 1-853.333334 0ZM512-128C230.4-128 0 102.39999999999998 0 384S230.4 896 512 896s512-230.4 512-512-230.4-512-512-512zM452.266667 699.733333l17.066666-435.2h81.066667l21.333333 435.2h-119.466666zM512 200.53333299999997c-21.333333 0-38.4-8.533333-55.466667-21.333333s-21.333333-34.133333-21.333333-55.466667 8.533333-42.666667 21.333333-55.466666c12.8-17.066667 34.133333-25.6 55.466667-25.6s42.666667 8.533333 55.466667 21.333333c12.8 12.8 21.333333 34.133333 21.333333 55.466667s-8.533333 42.666667-21.333333 55.466666c-12.8 17.066667-34.133333 25.6-55.466667 25.6z"  horiz-adv-x="1024" />

    
    <glyph glyph-name="MideaSelector-search" unicode="&#59138;" d="M694.7 246.5C739.8 301.70000000000005 768 371.20000000000005 768 448c0 176.7-143.3 320-320 320S128 624.7 128 448s143.3-320 320-320c76.8 0 146.3 28.2 201.5 73.3l154.4-154.4 45.3 45.3-154.5 154.3zM448 192c-141.4 0-256 114.6-256 256s114.6 256 256 256 256-114.6 256-256-114.6-256-256-256z"  horiz-adv-x="1024" />

    
    <glyph glyph-name="MideaSelector-add" unicode="&#59150;" d="M992 441.6H569.6V864H454.4v-422.4H32V320h422.4v-422.4H576V326.4h422.4V441.6z"  horiz-adv-x="1024" />

    
    <glyph glyph-name="MideaSelector-user" unicode="&#59152;" d="M499.2 864c134.4 0 243.2-108.8 243.2-236.8C742.4 492.8 633.6 384 499.2 384S256 492.8 256 620.8 364.8 864 499.2 864z m0 0c134.4 0 243.2-108.8 243.2-236.8C742.4 492.8 633.6 384 499.2 384S256 492.8 256 620.8 364.8 864 499.2 864zM409.6 307.20000000000005h204.8c172.8 0 313.6-140.8 313.6-307.2v-19.2c0-70.4-140.8-70.4-313.6-70.4H409.6c-172.8 0-313.6 0-313.6 70.4V0c0 166.4 140.8 307.2 313.6 307.2z"  horiz-adv-x="1024" />

    
    <glyph glyph-name="MideaSelector-org-config" unicode="&#59155;" d="M780.8-44.799999999999955v211.2h51.2V326.4H563.2v-160h51.2v-211.2H403.2v211.2h51.2V332.79999999999995H192v-160h51.2v-211.2H32v211.2h51.2V435.2h377.6V595.2h-57.6V812.8h211.2v-211.2h-51.2v-160h377.6v-268.8h51.2v-211.2l-211.2-6.4z"  horiz-adv-x="1024" />

    
    <glyph glyph-name="MideaSelector-common-people" unicode="&#59158;" d="M729.6 384c64 0 121.6 51.2 121.6 121.6s-51.2 121.6-121.6 121.6-121.6-57.6-121.6-121.6 51.2-121.6 121.6-121.6z m-364.8 51.2C448 435.2 512 499.2 512 576c0 76.8-64 147.2-140.8 147.2-76.8 0-147.2-64-147.2-147.2 0-76.8 64-140.8 140.8-140.8z m364.8-147.2c-89.6 0-262.4-44.8-262.4-134.4v-108.8h531.2v108.8c-6.4 89.6-179.2 134.4-268.8 134.4z m-364.8 44.8C256 332.79999999999995 25.6 275.20000000000005 25.6 166.39999999999998v-121.6h339.2v108.8c0 44.8 19.2 115.2 115.2 166.4-38.4 12.8-83.2 12.8-115.2 12.8z"  horiz-adv-x="1024" />

    
    <glyph glyph-name="MideaSelector-rules-competence" unicode="&#59163;" d="M512 864c64 0 128-12.8 185.6-38.4 57.6-25.6 108.8-57.6 153.6-102.4 44.8-44.8 76.8-96 102.4-153.6 25.6-57.6 38.4-121.6 38.4-185.6s-12.8-128-38.4-185.6c-25.6-57.6-57.6-108.8-102.4-153.6-44.8-44.8-96-76.8-153.6-102.4-57.6-25.6-121.6-38.4-185.6-38.4s-128 12.8-185.6 38.4c-57.6 25.6-108.8 57.6-153.6 102.4-44.8 44.8-76.8 96-102.4 153.6C44.8 256 32 320 32 384s12.8 128 38.4 185.6c25.6 57.6 57.6 108.8 102.4 153.6 44.8 44.8 96 76.8 153.6 102.4C384 851.2 448 864 512 864zM569.6 448c0 19.2-6.4 32-19.2 44.8-6.4 12.8-19.2 19.2-38.4 19.2-12.8 0-32-6.4-38.4-19.2-12.8-12.8-19.2-25.6-19.2-44.8v-358.4c0-19.2 6.4-32 19.2-38.4 12.8-12.8 25.6-12.8 44.8-12.8 19.2 0 32 6.4 44.8 12.8 12.8 12.8 19.2 25.6 19.2 44.8L569.6 448zM512 582.4c19.2 0 38.4 6.4 51.2 19.2 12.8 12.8 19.2 32 19.2 51.2 0 19.2-6.4 38.4-19.2 51.2-12.8 19.2-32 25.6-51.2 25.6-19.2 0-38.4-6.4-51.2-19.2-19.2-12.8-25.6-32-25.6-51.2 0-19.2 6.4-38.4 25.6-51.2 12.8-19.2 32-25.6 51.2-25.6z"  horiz-adv-x="1024" />

    
    <glyph glyph-name="MideaSelector-adrr" unicode="&#59164;" d="M800 864h-576c-44.8 0-83.2-44.8-83.2-96v-96c25.6 0 51.2-25.6 51.2-57.6s-25.6-57.6-51.2-57.6v-115.2c25.6 0 51.2-25.6 51.2-57.6s-25.6-57.6-51.2-57.6v-115.2c32 0 51.2-25.6 51.2-57.6s-25.6-57.6-51.2-57.6V0c0-51.2 38.4-96 89.6-96h569.6c51.2 0 89.6 44.8 89.6 96V768c-6.4 51.2-44.8 96-89.6 96z m-19.2-697.6c0-12.8-12.8-25.6-25.6-25.6-249.6 0-454.4 204.8-454.4 454.4 0 12.8 12.8 25.6 25.6 25.6h96c12.8 0 25.6-12.8 25.6-25.6 0-32 6.4-64 12.8-96 0-6.4 0-19.2-6.4-25.6l-44.8-38.4C448 364.79999999999995 512 294.4 588.8 256l38.4 44.8c6.4 6.4 19.2 12.8 25.6 12.8 32-12.8 64-19.2 96-19.2 12.8 0 25.6-12.8 25.6-25.6l6.4-102.4z"  horiz-adv-x="1024" />

    
    <glyph glyph-name="MideaSelector-folder" unicode="&#59357;" d="M416 768H128C76.8 768 32 723.2 32 672v-576c0-51.2 44.8-96 96-96h768c51.2 0 96 44.8 96 96V576c0 51.2-44.8 96-96 96H512L416 768z"  horiz-adv-x="1024" />

    
    <glyph glyph-name="MideaSelector-organization-chart" unicode="&#59167;" d="M896 288h-121.6l-121.6 204.8c32 19.2 51.2 51.2 51.2 83.2V768c0 51.2-44.8 96-96 96h-192C364.8 864 320 819.2 320 768v-192c0-32 19.2-64 51.2-83.2L249.6 288H128c-51.2 0-96-44.8-96-96v-192c0-51.2 44.8-96 96-96h192c51.2 0 96 44.8 96 96v64h192v-64c0-51.2 44.8-96 96-96h192c51.2 0 96 44.8 96 96v192c0 51.2-44.8 96-96 96z m-480-153.6V192c0 51.2-38.4 89.6-89.6 96l108.8 192H576l108.8-192c-44.8-6.4-83.2-44.8-83.2-96v-57.6H416z"  horiz-adv-x="1024" />

    
    <glyph glyph-name="MideaSelector-collect" unicode="&#59374;" d="M512-11.946667000000048L195.584-128l7.168 352.312889L0 504.888889l320.853333 101.660444L512 896l191.146667-289.450667L1024 504.888889l-202.752-280.576 7.168-352.312889z"  horiz-adv-x="1024" />

    
    <glyph glyph-name="MideaSelector-recent-contacts" unicode="&#59168;" d="M512 864C249.6 864 32 646.4 32 384s217.6-480 480-480 480 217.6 480 480S774.4 864 512 864z m44.8-486.4c0-12.8-6.4-25.6-12.8-32-6.4-6.4-19.2-12.8-32-12.8H256c-25.6 0-44.8 19.2-44.8 44.8s19.2 44.8 44.8 44.8h217.6V633.6c0 25.6 19.2 44.8 44.8 44.8 25.6 0 44.8-19.2 44.8-44.8l-6.4-256z"  horiz-adv-x="1024" />

    
    <glyph glyph-name="MideaSelector-shouye" unicode="&#59175;" d="M979.2 428.8L544 800h-6.4c-12.8 19.2-32 19.2-44.8 12.8L44.8 448c-12.8-19.2-19.2-38.4-6.4-51.2 12.8-12.8 32-19.2 51.2-6.4l44.8 38.4v-390.4c0-51.2 38.4-89.6 89.6-89.6h217.6v192c0 12.8 12.8 25.6 25.6 25.6h96c12.8 0 25.6-12.8 25.6-25.6v-192h217.6c51.2 0 89.6 38.4 89.6 89.6V409.6l32-25.6c12.8-12.8 32-12.8 44.8 6.4 25.6 6.4 25.6 25.6 6.4 38.4"  horiz-adv-x="1024" />

    
    <glyph glyph-name="MideaSelector-guanbi1" unicode="&#59184;" d="M512 474.577455L174.173091 812.218182a63.953455 63.953455 0 0 1-90.018909-0.465455 63.581091 63.581091 0 0 1-0.465455-90.018909L421.422545 384 83.781818 46.173091a63.953455 63.953455 0 0 1 0.465455-90.018909c25.134545-25.134545 65.349818-25.227636 90.018909-0.465455L512 293.422545 849.826909-44.218181999999956a63.953455 63.953455 0 0 1 90.018909 0.465455c25.134545 25.134545 25.227636 65.349818 0.465455 90.018909L602.577455 384 940.218182 721.826909a63.953455 63.953455 0 0 1-0.465455 90.018909 63.581091 63.581091 0 0 1-90.018909 0.465455L512 474.577455z"  horiz-adv-x="1087" />

    
    <glyph glyph-name="MideaSelector-guanbi" unicode="&#59185;" d="M752.355 624.3530000000001l-13.126 13.126c-14.501 14.5-37.995 14.5-52.5 0L513.652 464.404 344.744 633.327c-14.652 14.632-38.362 14.632-53.006 0l-13.233-13.249c-14.647-14.632-14.647-38.358 0-52.988l168.908-168.923-169.816-169.824c-14.499-14.499-14.499-38.008 0-52.495l13.131-13.13c14.496-14.498 37.994-14.498 52.493 0L513.04 332.543l178.427-178.429c14.634-14.634 38.356-14.634 52.981 0l13.253 13.242c14.632 14.639 14.632 38.365 0 53.006L579.274 398.772l173.077 173.081c14.508 14.506 14.508 38.001 0.004 52.5z"  horiz-adv-x="1024" />

    
    <glyph glyph-name="MideaSelector-caret-down" unicode="&#59348;" d="M902.12 61.98599999999999z m92.061 537.747L575.485 54.460000000000036c-29.092-37.899-92.18-37.899-121.283 0L35.509 599.733c-26.976 35.13 6.765 79.06 60.723 79.063h837.304c53.876 0 87.62-43.933 60.645-79.063z"  horiz-adv-x="1024" />

    
    <glyph glyph-name="MideaSelector-plus-f" unicode="&#59187;" d="M512-128a512 512 0 1 0 512 512 512 512 0 0 0-512-512z m0 960a448 448 0 1 1 448-448A448 448 0 0 1 512 832z m192-480H544v-160a32 32 0 0 0-64 0V352H320a32 32 0 0 0 0 64h160V576a32 32 0 0 0 64 0v-160h160a32 32 0 0 0 0-64z"  horiz-adv-x="1024" />

    
    <glyph glyph-name="MideaSelector-personnel" unicode="&#59191;" d="M134.4 6.399999999999977c6.4 0 6.4 0 0 0 0 19.2 0 38.4 6.4 57.6 6.4 32 12.8 64 19.2 89.6 6.4 25.6 19.2 51.2 38.4 76.8 12.8 25.6 25.6 44.8 44.8 57.6 12.8 19.2 32 38.4 57.6 51.2 19.2 19.2 44.8 32 70.4 38.4h6.4c19.2-38.4 44.8-70.4 64-108.8 19.2-38.4 44.8-76.8 64-108.8 0-6.4 0-6.4 6.4 0l76.8 115.2c12.8 19.2 25.6 44.8 38.4 64 6.4 12.8 12.8 25.6 25.6 38.4h6.4c19.2-6.4 44.8-19.2 64-32 19.2-12.8 44.8-32 57.6-51.2 19.2-25.6 38.4-44.8 51.2-76.8 19.2-38.4 32-83.2 44.8-128 6.4-19.2 6.4-38.4 6.4-57.6V-25.600000000000023h-6.4c-38.4-19.2-83.2-32-128-38.4-44.8-12.8-89.6-19.2-134.4-25.6-19.2 0-44.8-6.4-64-6.4H473.6c-44.8 0-96 6.4-140.8 12.8-44.8 6.4-89.6 19.2-134.4 32-19.2 6.4-44.8 12.8-64 19.2H128c6.4 19.2 6.4 25.6 6.4 38.4zM524.8 864h12.8c19.2 0 38.4-6.4 51.2-12.8 12.8-6.4 32-19.2 44.8-25.6l38.4-38.4c19.2-19.2 32-44.8 38.4-70.4 6.4-12.8 6.4-32 6.4-44.8V640c0-25.6-6.4-44.8-19.2-70.4-6.4-19.2-19.2-38.4-32-51.2l-38.4-38.4c-12.8-12.8-32-19.2-51.2-25.6-19.2-6.4-32-12.8-44.8-12.8-32 0-57.6 0-89.6 6.4-25.6 12.8-51.2 25.6-70.4 44.8-19.2 19.2-38.4 38.4-51.2 64-12.8 19.2-19.2 44.8-19.2 64v38.4c0 25.6 6.4 44.8 12.8 70.4 6.4 25.6 19.2 44.8 38.4 57.6 6.4 12.8 19.2 25.6 32 38.4 25.6 19.2 51.2 25.6 76.8 38.4 12.8 0 19.2 6.4 32 6.4 12.8-6.4 19.2-6.4 32-6.4z"  horiz-adv-x="1024" />

    
    <glyph glyph-name="MideaSelector-section" unicode="&#59192;" d="M947.2 550.4L544 851.2C537.6 857.6 524.8 864 512 864s-25.6-6.4-32-12.8l-57.6-38.4-352-256c-12.8-12.8-19.2-32-19.2-51.2v-537.6c0-32 25.6-57.6 57.6-57.6h140.8c51.2 0 89.6-12.8 89.6 108.8V262.4c0 32 25.6 57.6 57.6 57.6h230.4c32 0 57.6-25.6 57.6-57.6v-243.2c0-140.8 19.2-121.6 76.8-121.6h153.6c32 0 57.6 25.6 57.6 57.6V505.6c0 19.2-6.4 38.4-25.6 44.8z"  horiz-adv-x="1024" />

    
    <glyph glyph-name="MideaSelector-arrows-right" unicode="&#59384;" d="M166.4 787.2c0 19.2 6.4 32 19.2 44.8C204.8 870.4 256 876.8 294.4 851.2L825.6 448l12.8-12.8c25.6-38.4 19.2-83.2-12.8-108.8l-531.2-396.8c-12.8-12.8-32-19.2-51.2-19.2-44.8 0-76.8 38.4-76.8 83.2V787.2z"  horiz-adv-x="1024" />

    
    <glyph glyph-name="MideaSelector-synchronization-log" unicode="&#59340;" d="M512 486.4c-32 0-51.2-19.2-51.2-51.2v-256c0-32 19.2-51.2 51.2-51.2s51.2 19.2 51.2 51.2v256c0 25.6-19.2 51.2-51.2 51.2zM512 640c-32 0-57.6-25.6-57.6-51.2s25.6-57.6 57.6-57.6 57.6 25.6 57.6 57.6S544 640 512 640zM512 0c-211.2 0-384 172.8-384 384s172.8 384 384 384 384-172.8 384-384-172.8-384-384-384zM512 864C249.6 864 32 646.4 32 384s217.6-480 480-480 480 217.6 480 480C985.6 646.4 774.4 864 512 864z"  horiz-adv-x="1024" />

    
    <glyph glyph-name="MideaSelector-please" unicode="&#59197;" d="M371.2-83.20000000000005H140.8c-44.8 0-76.8 38.4-76.8 83.2V492.8c0 25.6 12.8 44.8 32 64L467.2 832c12.8 12.8 32 19.2 44.8 19.2 12.8 0 32-6.4 44.8-12.8l371.2-275.2c19.2-12.8 32-38.4 32-64V0c0-44.8-32-76.8-76.8-76.8h-236.8V275.20000000000005c0 19.2-12.8 32-32 32H403.2c-19.2 0-32-12.8-32-32v-358.4z"  horiz-adv-x="1024" />

    
    <glyph glyph-name="MideaSelector-check-box" unicode="&#59289;" d="M296.96 424.96c-22.528 22.528-59.392 22.528-81.92 0s-22.528-59.392 0-81.92l192-192c24.064-24.064 64-22.528 85.504 4.096l320 384c20.48 24.576 17.408 61.44-7.68 81.92-24.576 20.48-61.44 17.408-81.92-7.68l-279.552-335.36L296.96 424.96zM128 896h768c70.656 0 128-57.344 128-128v-768c0-70.656-57.344-128-128-128H128C57.344-128 0-70.65599999999995 0 0V768C0 838.656 57.344 896 128 896z"  horiz-adv-x="1024" />

    
    <glyph glyph-name="MideaSelector-agency-classification" unicode="&#59323;" d="M940.8 217.60000000000002h-64V390.4c0 12.8-12.8 25.6-25.6 25.6H537.6V550.4h64c25.6 0 51.2 19.2 51.2 51.2V755.2c0 25.6-25.6 51.2-51.2 51.2H422.4c-25.6 0-51.2-19.2-51.2-51.2v-160c0-25.6 25.6-51.2 51.2-51.2h64v-134.4H172.8c-12.8 0-25.6-12.8-25.6-25.6v-172.8h-64c-25.6 0-51.2-19.2-51.2-51.2V0c0-25.6 25.6-51.2 51.2-51.2H256c25.6 0 51.2 19.2 51.2 51.2v160c0 25.6-25.6 51.2-51.2 51.2H192V371.20000000000005h294.4v-147.2h-64c-25.6 0-51.2-19.2-51.2-51.2v-160c0-25.6 25.6-51.2 51.2-51.2h172.8c25.6 0 51.2 19.2 51.2 51.2v160c0 25.6-25.6 51.2-51.2 51.2h-64V371.20000000000005h294.4v-147.2h-64c-25.6 0-51.2-19.2-51.2-51.2v-160c0-25.6 25.6-51.2 51.2-51.2h172.8c25.6 0 51.2 19.2 51.2 51.2v160c6.4 25.6-19.2 44.8-44.8 44.8z"  horiz-adv-x="1024" />

    
    <glyph glyph-name="MideaSelector-shoucang" unicode="&#59306;" d="M589.523-6.024000000000001c-29.455 15.48-77.433 15.39-106.707 0l-206.968-108.815c-58.88-30.96-97.461-2.65-86.257 62.675l39.514 230.46c5.632 32.829-9.276 78.397-32.979 101.497L28.702 443c-47.646 46.442-32.617 91.89 32.949 101.407l231.394 33.61c32.948 4.79 71.68 33.07 86.347 62.736L482.876 850.432c29.455 59.663 77.312 59.422 106.617 0l103.484-209.68c14.727-29.846 53.61-57.976 86.347-62.734l231.394-33.611c65.837-9.578 80.414-55.146 32.949-101.407L876.243 279.793c-23.853-23.25-38.58-68.88-32.979-101.497l39.514-230.46c11.234-65.566-27.618-93.515-86.257-62.675L589.523-6.024000000000001z"  horiz-adv-x="1085" />

    


  </font>
</defs>
</svg>
